<svg width="119" height="113" viewBox="0 0 119 113" fill="none" xmlns="http://www.w3.org/2000/svg">
    <path fill-rule="evenodd" clip-rule="evenodd" d="M115.485 76.8407C117.551 73.1491 117.714 72.5068 117.691 68.1712C117.68 65.953 117.874 62.4649 118.123 60.4194C118.7 55.678 118.147 51.6038 116.426 47.9249C115.031 44.9433 114.405 44.0634 113.988 44.5019C113.853 44.6433 113.033 47.0108 112.164 49.7624C109.921 56.8708 107.747 60.1373 102.341 64.5247C99.8581 66.5393 97.1368 67.5839 96.3409 66.8274C95.6054 66.1285 96.3746 64.4527 99.377 60.2122C104.211 53.3843 105 52.1518 106.193 49.566C107.813 46.0543 109.66 40.0572 109.799 37.8573C109.978 35.0182 109.282 33.7326 105.129 29.2337C101.949 25.7876 100.648 24.0435 98.8698 20.8389C98.6662 20.4717 98.3924 20.3693 98.1887 20.5837C97.6441 21.1566 95.0623 32.4466 93.7835 39.8468C92.5336 47.0812 91.5411 50.4814 89.3231 55.129C87.4895 58.9711 86.9671 59.5023 85.9632 58.5482C84.9984 57.6313 84.1187 54.265 84.379 52.4871C84.6954 50.3276 85.7194 47.253 87.8852 41.9589C91.8715 32.2163 93.29 25.8959 92.8598 19.7935C92.6247 16.457 92.2597 15.728 89.8877 13.857C87.9894 12.3595 80.2444 8.52671 79.0931 8.51514C78.1741 8.50578 78.175 8.49818 77.9524 15.9045C77.4591 32.3162 74.3454 45.3255 70.7661 45.9321C67.4108 46.5015 70.4276 34.2292 70.6383 33.2624C72.6713 23.9367 73.6856 16.0461 73.6213 10.0513C73.5712 5.35217 71.9084 3.96613 64.9235 2.80077C62.6126 2.41494 59.3816 1.73157 57.7429 1.28209C56.1042 0.832608 54.6306 0.604353 54.4685 0.774908C54.3064 0.945466 54.512 2.22866 54.9253 3.62646C57.4384 12.1258 58.279 17.9036 58.7562 29.9679C59.1015 38.691 58.3615 42.1638 56.0324 42.7508C54.7672 43.0696 54.3153 40.2217 54.1982 31.1945C54.0567 20.3043 53.6 14.98 52.3279 9.38183C51.2132 4.47838 50.3306 2.49688 48.9257 1.7454C47.2636 0.85675 39.4697 0.428851 36.2578 1.04993C32.643 1.74891 29.0493 3.13609 28.705 3.96538C28.4839 4.49736 28.9004 4.95277 32.0683 7.64576C36.2475 11.1974 37.5524 12.9495 39.9712 18.2568C43.4339 25.8552 46.0416 37.6039 44.363 38.0455C43.6523 38.2325 41.3229 35.6946 39.9355 33.2218C35.7573 25.7737 33.2463 18.0072 28.2873 10.829C26.8062 8.68745 24.2142 7.00931 21.624 7.08316C16.6363 7.22666 11.8479 9.91257 8.20908 13.0856C4.21324 16.5698 3.29885 17.1248 1.99253 16.8577C1.49742 16.7566 1.00855 16.7618 0.906286 16.8694C0.804018 16.977 0.97143 18.1643 1.27894 19.5074C1.61297 20.9681 1.67647 23.2611 1.43687 25.2143C0.955487 29.1408 1.35638 30.0275 4.70784 32.4446C9.23534 35.7098 13.5714 37.503 18.9342 38.3275C22.7166 38.9089 24.0802 39.3223 24.9532 40.152C26.4594 41.5835 24.5298 42.6958 20.3568 42.802C17.3494 42.8785 10.5237 40.8453 7.17499 38.8751C2.68365 36.2334 2.2331 36.0222 1.88018 36.3935C1.44266 36.8539 1.68125 40.3383 2.27694 42.1907C2.61989 43.2571 3.3418 44.1564 5.50662 46.2138C8.16425 48.7396 8.43642 48.9069 11.3348 49.8004C14.699 50.8368 20.2258 51.1172 26.674 50.5786C37.4008 49.6822 42.2143 50.0211 43.0282 51.7305C43.7881 53.3257 36.0975 56.8538 31.9963 56.7912C26.951 56.7144 25.9816 56.6254 21.1363 55.7934C15.1638 54.7685 11.6378 53.6691 9.04809 52.0249C6.93477 50.6836 6.38413 50.6443 6.29792 51.8297C6.22289 52.8583 8.42141 58.4208 9.91522 60.9826C11.5078 63.7132 14.614 66.3407 17.0841 67.0472C20.8495 68.1235 23.6258 68.3789 27.3123 67.9888C32.5272 67.4366 35.2329 66.754 42.3565 64.1934C49.0961 61.7704 51.8437 61.3008 52.7303 62.42C53.2085 63.0237 53.1354 63.2567 52.1777 64.1844C50.4697 65.8394 42.9925 69.1518 38.7348 70.1397C32.6939 71.5415 25.539 72.2978 22.2536 71.8821C20.9578 71.7184 18.493 71.2507 16.7758 70.8427C15.0586 70.4353 13.5499 70.2106 13.4228 70.3443C12.805 70.9943 17.7216 78.1376 20.81 81.0764C22.7686 82.9404 24.8252 83.3928 29.2631 82.9367C36.1325 82.2304 40.1459 80.8294 49.2992 75.9415C53.4985 73.6994 57.3733 71.756 57.9107 71.6227C60.2038 71.0542 59.4325 74.2017 56.5243 77.2818C54.3703 79.5627 51.155 81.6157 45.7281 84.1753C40.2826 86.7441 37.158 87.5343 31.2351 87.84C28.4111 87.9858 25.9791 88.2333 25.8299 88.3903C25.1442 89.1119 30.1479 94.2484 33.7887 96.56C38.3149 99.4338 42.6822 98.1347 55.9433 89.9714C57.08 89.2717 67.5474 84.3919 63.371 89.3307C60.1196 93.1746 50.7285 100.229 45.897 102.457C44.0805 103.295 42.5974 104.11 42.6014 104.268C42.6055 104.426 43.8782 105.045 45.4298 105.642C46.9813 106.24 49.6592 107.7 51.3799 108.886C53.1009 110.072 55.4415 111.358 56.5809 111.744C59.2181 112.637 63.7675 112.474 66.5724 111.387C71.3547 109.532 72.3162 109.255 74.2739 109.168C75.4084 109.117 76.9415 109.397 77.7371 109.8C81.0747 111.49 84.2592 109.836 86.1441 105.432C87.4999 102.263 87.2736 99.7633 85.0871 93.7668C84.4874 92.1228 76.5288 81.2561 80.8143 77.9143C83.9075 74.6595 90.1733 80.0642 92.7211 81.2179C97.7949 83.5153 103.426 85.5762 109.093 83.586C111.018 82.9102 113.634 80.1496 115.485 76.8407ZM75.3547 64.5851C74.4261 64.6954 73.1216 63.4499 72.605 61.9597C72.1254 60.575 72.3364 57.2012 73.0321 55.133C73.4605 53.8596 73.7758 53.4868 75.3432 52.4001C79.1965 49.729 81.5513 51.5193 80.4385 56.2741C79.2557 61.3291 77.4134 64.3411 75.3547 64.5851ZM63.1353 53.2155C61.531 51.6908 62.016 46.4814 63.8053 46.0215C64.7146 45.7879 65.9538 46.7127 66.1096 47.7412C66.3467 49.3061 65.6368 52.0585 64.7575 52.9837C63.9747 53.8074 63.7865 53.8343 63.1353 53.2155Z" fill="#12372A"/>
</svg>
