<svg width="151" height="157" viewBox="0 0 151 157" fill="none" xmlns="http://www.w3.org/2000/svg">
    <path fill-rule="evenodd" clip-rule="evenodd" d="M39.8687 7.57366C39.3115 8.21355 38.0634 10.4326 37.0951 12.5043C35.1415 16.686 33.4197 18.8548 28.369 23.495C19.6917 31.4671 11.9462 41.6954 10.122 47.5905C9.46025 49.7289 8.41434 56.4277 8.05303 60.8398C7.58773 66.5232 7.2325 68.109 4.49892 76.6999C3.26633 80.5728 2.09045 85.0852 1.88622 86.7273C0.837909 95.1422 0.64591 97.2166 0.645786 100.137C0.645433 101.885 0.940629 104.769 1.30102 106.545C1.84903 109.244 2.24791 110.171 3.72982 112.189C6.06199 115.365 9.16055 117.642 13.2546 119.187C17.7926 120.899 18.6346 121.083 21.7779 121.038C23.2753 121.017 24.7644 119.857 24.9127 119.965C25.0613 120.073 24.6388 122.63 24.1478 124.142C22.891 128.012 22.4011 130.531 21.5529 137.489C20.506 146.074 20.5824 151.064 21.7819 152.425C22.5673 153.317 23.5693 152.091 23.5857 150.218C23.5937 149.321 23.4662 146.946 23.3018 144.941C22.9505 140.651 23.1214 136.458 23.7896 132.991C24.0544 131.619 24.4556 129.433 24.6814 128.132C25.4661 123.614 26.2316 120.626 26.6547 120.407C26.8889 120.286 27.7536 123.523 29.1153 125.503C32.0677 129.797 33.7449 131.118 36.4363 131.27C39.0525 131.418 41.1049 130.577 45.3138 127.631C52.3269 122.723 58.8811 114.475 61.628 107.1C66.917 92.8994 69.1546 81.7167 70.3968 63.2796C71.3575 49.0154 70.0551 38.6269 66.2316 30.0513C62.4466 21.5638 49.842 9.36249 42.2859 6.87231C40.9327 6.42641 40.8462 6.4512 39.8687 7.57366ZM51.5115 22.7921C54.0052 23.4896 53.8752 25.9236 51.1991 28.6299C49.122 30.7308 45.1783 32.7649 43.6408 32.5289C42.4855 32.3511 42.3163 30.8756 43.1566 28.3056C43.9149 25.9873 44.9989 24.4212 46.4332 23.5725C47.7489 22.7942 50.182 22.4203 51.5115 22.7921ZM29.7793 29.6353C30.0902 29.9097 30.8629 31.2479 31.4956 32.6089C32.1287 33.9698 33.6621 36.4793 34.9033 38.1853C36.7613 40.7403 37.1519 41.5443 37.1149 42.7412C37.0582 44.5941 36.3236 45.5929 34.8484 45.8232C32.441 46.1988 30.4622 42.9634 28.6737 35.7265C27.7551 32.011 27.6558 31.144 28.0487 30.2768C28.5884 29.085 28.9882 28.9369 29.7793 29.6353ZM62.8431 29.5645C63.1548 31.562 59.6835 37.0256 56.4583 39.6139C54.3087 41.3388 49.2253 43.9979 47.5897 44.2531C45.751 44.54 43.4513 43.8633 42.9682 42.8931C42.3702 41.6928 43.7937 38.8398 45.9199 36.9781C47.9978 35.1586 50.3409 34.0576 55.135 32.6483C57.2549 32.0255 59.0834 31.2341 59.6406 30.6988C61.3601 29.0481 62.689 28.5772 62.8431 29.5645ZM20.3316 43.5572C21.5928 45.2094 23.6708 47.5854 24.9489 48.8364C28.7284 52.5362 28.8717 54.0037 25.5548 55.0428C22.0984 56.1259 21.0779 55.1664 17.8641 47.8123C15.8805 43.2726 15.6006 42.0285 16.3352 41.0222C17.1636 39.8874 17.8738 40.3375 20.3316 43.5572ZM54.113 48.667C55.6856 49.3555 53.2182 51.8256 48.4971 54.2897C45.562 55.8213 43.9514 55.9154 43.7409 54.5668C43.4783 52.8841 45.5223 50.8177 48.5352 49.7202C51.6197 48.5964 53.2489 48.2886 54.113 48.667ZM67.2205 53.7828C67.8602 54.2075 67.0546 56.153 65.5767 57.7518C61.6515 61.9976 54.2793 67.1704 49.0781 69.3284C44.713 71.1388 40.384 70.578 40.0056 68.1531C39.7197 66.3214 40.5539 64.2832 42.2429 62.6858C44.858 60.2132 45.8933 59.7509 58.122 55.5958C60.6343 54.7424 63.1388 53.9062 63.6876 53.7377C64.8954 53.3673 66.6279 53.3893 67.2205 53.7828ZM18.5617 64.6033C21.7871 66.0097 24.4211 68.4825 28.143 73.5983C31.0373 77.5763 30.8066 79.2175 27.2701 79.8142C25.3919 80.1315 25.3724 80.1212 23.2033 77.7544C20.3492 74.6401 17.6223 70.6798 16.269 67.6843C14.5464 63.8714 15.119 63.102 18.5617 64.6033ZM14.8695 80.8572C22.0789 86.8989 25.6125 91.1695 26.1263 94.4621C26.5125 96.9372 25.8144 97.6121 22.3837 98.0826C18.9662 98.5515 17.3509 97.6889 14.951 94.113C11.97 89.6713 11.1594 87.6262 10.6353 83.2223C10.1725 79.332 10.4217 78.278 11.739 78.561C12.0281 78.6233 13.437 79.6566 14.8695 80.8572ZM51.5762 74.5812C54.6212 75.3967 54.909 76.5714 52.6014 78.7681C50.3965 80.8675 46.6971 82.8568 42.1903 84.3669C35.5116 86.6045 34.6165 85.9453 38.1506 81.3907C40.7769 78.0063 42.3112 76.7313 45.4165 75.3525C48.2379 74.1 49.2877 73.9684 51.5762 74.5812ZM64.7051 82.2362C66.4309 83.4961 64.5732 87.2394 61.0019 89.7006C59.826 90.5111 57.3927 92.5245 55.5946 94.1753C48.0996 101.056 40.6401 104.38 37.0285 102.447C36.0227 101.909 35.8021 101.506 35.5395 99.7261C35.2717 97.9109 35.3862 97.4149 36.4137 95.9476C37.0642 95.0183 38.0182 93.946 38.5337 93.5644C40.3228 92.2392 44.5363 90.2855 50.0396 88.2292C53.1092 87.0823 57.0178 85.2816 58.8191 84.1849C62.2865 82.0737 63.7974 81.5736 64.7051 82.2362ZM12.6712 103.923C14.7877 104.621 18.3631 106.874 20.5108 108.863C23.8697 111.974 23.0275 114.424 18.4998 114.716C15.7564 114.892 13.8393 114.156 12.0767 112.25C10.6542 110.711 8.84917 107.038 8.539 105.05C8.37786 104.017 8.49679 103.89 9.81073 103.685C10.6077 103.56 11.8947 103.668 12.6712 103.923ZM57.7124 106.828C59.5121 108.416 44.4623 117.503 38.2073 118.605C30.9346 119.885 31.2929 114.363 38.6521 111.744C51.8676 107.043 56.5802 105.828 57.7124 106.828Z" fill="#ADBC9F"/>
    <path fill-rule="evenodd" clip-rule="evenodd" d="M24.3887 152.969C25.0633 152.439 27.3774 151.521 29.5319 150.928C33.3699 149.872 37.1247 148.416 42.11 146.052C43.4823 145.401 44.7274 145.036 44.8764 145.239C45.2228 145.713 57.0663 147.924 62.2565 148.483C65.733 148.858 66.616 149.114 69.5185 150.587C77.3616 154.57 79.4763 155.555 81.0588 155.967C83.18 156.518 82.7247 156.116 77.1339 152.5C74.8108 150.998 72.7042 149.521 72.4531 149.218C71.96 148.623 72.7901 148.536 77.9061 148.645C83.0798 148.755 80.5029 148.034 70.0314 146.439C65.3553 145.728 64.0078 145.337 58.5155 143.104C55.0946 141.713 52.3419 140.461 52.3987 140.321C52.4555 140.182 53.599 139.551 54.9401 138.919L57.3783 137.771L65.1515 140.9C72.4612 143.841 80.8631 146.288 82.9348 146.078C83.3014 146.041 82.0112 145.215 80.0676 144.242C76.9418 142.676 72.6961 141.054 62.4682 137.517C60.8463 136.956 59.5726 136.375 59.6371 136.226C59.7015 136.077 60.6075 135.517 61.65 134.983L63.5455 134.012L67.1455 135.995C72.9205 139.177 86.3692 143.896 93.9381 145.396C102.88 147.168 105.018 147.228 101.275 145.604C87.0032 139.413 74.2216 135.005 65.9628 133.427C64.8226 133.209 64.7097 133.084 65.1414 132.514C65.4162 132.151 65.9784 131.649 66.3901 131.399C67.5227 130.71 73.6883 131.055 76.2125 131.949C83.1821 134.417 87.8135 135.878 91.0134 136.617C94.5573 137.436 104.973 138.989 108.944 139.291L110.969 139.445L107.994 138.205C105.257 137.064 91.1287 132.37 86.7444 131.144C84.9374 130.64 85.0524 130.601 89.9284 130.074C94.1415 129.619 95.5166 129.67 98.1539 130.379C102.312 131.497 111.977 133.466 114.249 133.659L116.043 133.81L114.533 133.038C113.702 132.614 110.842 131.603 108.176 130.793C105.511 129.982 102.56 129.006 101.618 128.623L99.9068 127.927L101.11 127.42C102.207 126.956 108.776 127.274 114.074 128.045C116.248 128.362 124.359 127.945 122.506 127.612C121.912 127.505 120.056 127.193 118.382 126.917C112.971 126.029 111.902 125.806 110.579 125.288C109.864 125.008 109.339 124.647 109.413 124.486C109.652 123.964 117.446 122.194 120.127 122.054C121.561 121.979 124.314 121.625 126.245 121.268C128.176 120.91 130.464 120.546 131.329 120.458C134.155 120.169 133.222 119.722 128.612 119.155C120.597 118.168 120.07 117.873 125.625 117.481C128.342 117.289 130.514 117.01 130.451 116.86C130.387 116.711 127.944 116.382 125.022 116.13C122.099 115.877 116.163 115.149 111.83 114.511C99.0183 112.624 96.6636 112.335 92.9437 112.189C90.9977 112.113 89.4391 111.967 89.4809 111.865C89.6806 111.373 92.1703 109.01 92.3959 109.098C92.537 109.152 94.862 109.668 97.5621 110.243C100.262 110.818 103.618 111.547 105.021 111.863C109.357 112.841 123.05 113.703 128.044 113.314C131.181 113.069 136.702 112.092 136.838 111.758C137.021 111.308 136.644 111.208 131.073 110.23C116.683 107.703 108.783 107.181 95.3796 107.869C93.4362 107.969 93.2532 107.578 94.5897 106.182C96.2128 104.488 96.496 104.42 99.8589 104.926C105.925 105.837 119.253 106.283 125.507 105.782C130.159 105.41 139.164 103.676 139.419 103.103C139.481 102.963 137.839 102.779 135.768 102.695C133.697 102.611 130.012 102.437 127.579 102.308C125.145 102.18 121.245 102.145 118.912 102.231C116.579 102.317 114.574 102.348 114.456 102.3C114.338 102.253 110.75 102.464 106.483 102.77C102.216 103.076 98.5054 103.237 98.2383 103.128C97.7049 102.911 98.0539 101.731 98.8023 101.22C99.0619 101.042 100.876 101.066 102.833 101.27C111.918 102.223 121.89 101.384 130.689 98.9295C131.84 98.6084 134.326 97.9878 136.213 97.5508C138.1 97.1138 139.817 96.6297 140.029 96.4748C140.99 95.7723 123.87 97.0237 113.116 98.4422C109.257 98.9511 106.03 99.3385 105.944 99.3035C105.858 99.2684 104.657 99.4065 103.276 99.6105C101.896 99.8144 100.604 99.9153 100.406 99.8349C100.208 99.7545 100.514 99.1552 101.085 98.5033C101.991 97.4693 102.685 97.2807 106.518 97.0241C115.332 96.4345 127.426 94.5145 132.689 92.8697C136.859 91.5664 147.841 86.9351 146.909 86.8727C146.512 86.8455 136.633 88.81 124.957 91.2376C107.94 94.7751 103.763 95.4952 103.909 94.8667C104.434 92.5984 108.023 91.2464 116.943 89.9562C124.551 88.8557 132.688 86.9608 138.115 85.025C140.588 84.143 147.764 80.5138 147.636 80.2098C147.571 80.0563 145.188 80.4137 142.34 81.004C135.607 82.3999 134.732 82.575 133.582 82.7566C133.053 82.8404 134.158 82.0966 136.038 81.1036C139.683 79.178 146.948 74.8837 148.969 73.4588C150.168 72.6147 150.174 72.5992 149.271 72.7118C148.764 72.7751 140.596 76.0151 131.121 79.9116C115.665 86.2672 109.632 88.3575 109.263 87.485C109.196 87.3255 109.5 86.6369 109.938 85.9547C110.597 84.9311 111.405 84.5631 114.581 83.8418C119.146 82.8047 130.83 77.9432 136.907 74.552C140.84 72.3572 147.13 68.1886 147.359 67.6257C147.554 67.148 142.743 68.7892 135.823 71.5603C124.641 76.0391 121.797 77.31 117.234 79.8669C114.899 81.1753 112.947 82.1466 112.896 82.0255C112.845 81.9042 113.29 81.1041 113.885 80.2476C114.723 79.0413 115.546 78.5045 117.537 77.866C124.578 75.6076 132.744 71.0696 140.539 65.0828C144.72 61.8715 150.348 56.5921 149.818 56.3769C149.738 56.3443 148.522 57.0845 147.116 58.0226C143.698 60.3012 132.195 66.7747 132.063 66.4591C131.939 66.1678 139.629 60.8975 141.249 59.8506C142.794 58.8525 145.514 56.7366 148.103 54.5197L150.306 52.6325L147.952 53.5306C146.657 54.0247 137.742 59.3147 137.173 59.5938C135.657 60.3379 143.35 55.2785 147.25 51.3584C149.194 49.405 150.756 47.7419 150.723 47.663C150.406 46.9116 145.623 49.7838 134.105 57.6417C128.95 61.1584 124.19 64.337 123.526 64.705L122.319 65.374L123.22 63.1334C124.035 61.1052 124.327 60.7906 126.3 59.8103C132.418 56.7725 141.221 50.0519 146.347 44.5071C148.513 42.1646 148.722 41.5522 146.793 43.2026C146.137 43.7646 142.497 46.4073 138.705 49.0752C134.913 51.743 130.33 55.0413 128.519 56.4051C126.709 57.7685 125.175 58.7574 125.109 58.6027C125.044 58.4477 125.411 57.4265 125.924 56.3337C126.75 54.5752 127.209 54.1629 129.914 52.7487C133.74 50.7478 141.097 45.4697 144.366 42.3811C147.308 39.6011 149.985 36.5333 149.817 36.134C149.75 35.9772 147.068 37.61 143.856 39.7625C138.517 43.3409 132.329 48.2086 133.497 46.9579C136.73 43.4968 148.713 28.8144 147.609 29.3607C147.381 29.4735 145.091 31.5289 142.521 33.9279C138.528 37.6549 134.028 42.5916 130.181 47.465C129.376 48.4852 129.209 48.5485 129.197 47.8388C129.188 47.2734 130.702 45.2198 133.67 41.7715C136.137 38.9051 139.123 35.1786 140.305 33.4909C142.42 30.4733 147.134 21.9588 146.942 21.5042C146.795 21.1559 142.715 26.2472 137.365 33.4551C129.936 43.4622 130.421 42.8779 130.592 41.6236C130.674 41.0228 131.791 39.1135 133.114 37.3148C134.42 35.5377 136.674 32.195 138.122 29.886C141.121 25.1056 145.651 15.7188 145.073 15.4838C144.868 15.4001 143.674 16.8454 142.42 18.6958L138.241 24.8602L142.317 16.1399C143.513 12.8835 144.423 10.0582 144.339 9.86075C144.256 9.6635 143.541 10.7652 142.751 12.3088C141.961 13.8522 140.489 16.5538 139.481 18.3126C137.761 21.3142 136.173 24.0434 136.509 22.4383C136.706 21.4979 138.811 16.3934 139.357 14.3193C140.837 8.69444 141.006 7.7997 140.618 7.64207C140.423 7.56293 139.542 9.27471 138.659 11.4461C136.354 17.1148 135.583 20.9763 135.948 15.8322C136.294 10.9543 136.524 4.60267 135.742 2.1808L135.225 0.57912L135.101 1.91991C135.031 2.65714 134.868 4.88661 134.736 6.87418C134.243 14.3264 133.555 17.3841 133.158 13.8883C132.608 9.05087 130.394 1.1246 129.901 2.22911C129.783 2.49328 129.917 5.48105 130.198 8.86831C130.479 12.2556 131.759 18.1476 131.712 18.263C131.666 18.3785 129.759 13.6978 128.808 11.5607C125.099 3.23549 124.268 3.42413 126.647 12.0507C127.301 14.4214 129.949 20.0974 129.827 20.0477C129.705 19.998 126.851 15.3652 126.19 14.3686C125.528 13.3719 124.654 12.1604 124.246 11.6763C123.053 10.2605 123.427 11.4234 126.869 19.8173C130.405 28.4426 130.377 28.3509 129.864 29.6364C129.553 30.417 129.337 30.0619 128.549 27.478C127.52 24.1024 126.725 22.3829 124.961 19.7143C123.019 16.7787 122.907 17.4427 124.631 21.6676C126.786 26.9495 129.82 36.6082 129.54 37.2964C129.131 38.3031 128.746 37.5574 127.886 34.0951C127.02 30.6053 125.12 26.6708 123.271 24.5369C121.872 22.9232 121.078 22.7264 121.88 24.1923C122.246 24.8611 123.475 27.4934 124.613 30.0426C125.75 32.5913 127.211 35.7277 127.86 37.0122C128.509 38.2966 128.999 39.8508 128.949 40.4663C128.864 41.5085 128.824 41.5243 128.37 40.6948C128.102 40.205 127.594 39.1966 127.243 38.4543C124.148 31.9192 120.343 25.6897 119.985 26.5702C119.759 27.1267 125.006 37.0195 127.009 39.8127C128.587 42.0128 128.79 42.563 128.389 43.5497C127.921 44.7001 127.903 44.6803 125.425 40.2865C123.083 36.1347 119.5 30.2772 118.563 29.0684C117.611 27.8396 118.443 30.2192 120.575 34.822C122.541 39.0664 123.799 41.1776 126.848 45.344C127.488 46.2189 127.545 46.7678 127.105 47.8486C126.796 48.6096 126.423 49.1842 126.278 49.1251C126.133 49.0661 125.258 47.4956 124.334 45.6355C121.59 40.1109 116.735 32.2829 116.465 32.9484C116.204 33.5914 122.336 45.1445 124.804 48.6598C125.947 50.2878 125.995 50.5792 125.372 52.1105L124.692 53.7831L123.3 50.6818C122.535 48.9761 121.853 47.4425 121.787 47.274C120.961 45.1941 116.602 37.0628 115.977 36.4363C115.523 35.9811 114.944 35.2194 114.691 34.7435C114.161 33.7475 113.803 34.2438 114.159 35.4806C114.724 37.4418 120.408 48.5254 122.131 51.0241C123.164 52.5236 124.156 54.031 124.336 54.3744C124.667 55.0081 123.875 57.5034 123.26 57.7625C123.076 57.8404 122.475 56.4916 121.926 54.765C120.918 51.593 118.679 47.3296 115.583 42.6832C112.01 37.3211 110.61 35.7627 111.42 38.0476C111.781 39.0643 115.898 46.8328 120.029 54.2932C122.129 58.0856 122.713 59.8648 122.022 60.3697C121.551 60.7141 121.204 60.2329 120.329 58.0234C118.27 52.8267 114.895 47.3254 111.407 43.4844C109.557 41.4463 107.897 39.8406 107.717 39.9165C107.537 39.9924 107.444 40.1367 107.509 40.2374C107.575 40.3383 108.627 42.0714 109.848 44.0891C111.068 46.1068 114.123 50.7848 116.637 54.4842C119.713 59.0122 121.112 61.4451 120.917 61.9273C120.691 62.484 120.037 61.7395 117.984 58.5879C114.568 53.3418 110.838 49.0613 106.909 45.8752C105.152 44.4494 106.041 45.8898 109.575 50.1919C119.626 62.4278 120.179 63.1682 119.951 64.0972C119.665 65.2647 119.303 65.1043 118.05 63.2545C116.157 60.4617 112.402 56.0784 109.474 53.2455C102.255 46.2609 102.392 47.6678 109.725 55.824C112.574 58.9932 115.706 62.3799 116.684 63.3496C118.968 65.6132 119.192 66.1424 118.385 67.3692C117.604 68.557 117.252 68.4799 116.212 66.894C113.727 63.105 105.541 53.2095 103.707 51.7768L102.827 51.0895L103.299 52.2101C104.059 54.0156 110.33 62.4493 113.867 66.4242C117.353 70.3415 117.311 70.1794 115.451 72.4494C115.221 72.7307 114.137 71.3378 112.496 68.6514C109.091 63.0799 105.586 58.6211 102.198 55.5513C100.685 54.1807 99.3412 53.0164 99.2114 52.9636C98.352 52.6142 101.532 57.7717 104.747 61.94C105.033 62.3118 106.314 64.0312 107.594 65.7612C108.874 67.4912 110.984 69.9083 112.283 71.1315C113.583 72.3553 114.686 73.5158 114.735 73.7108C114.859 74.2147 112.95 78.0321 112.638 77.9021C112.495 77.8428 111.285 75.6751 109.95 73.0851C106.283 65.974 104.58 63.2162 102.183 60.5056C99.7911 57.8012 97.5131 55.7636 97.0842 55.9446C96.933 56.0084 97.8499 57.7064 99.1211 59.7182C100.393 61.7299 101.892 64.1032 102.454 64.9916C105.878 70.4106 109.634 76.0092 110.648 77.2078C111.295 77.9722 111.85 78.75 111.882 78.9363C111.913 79.1225 111.413 80.0496 110.77 80.9971L109.601 82.719L107.123 77.2177C105.76 74.1916 103.562 70.1516 102.239 68.2395C99.5552 64.363 94.9004 58.8445 94.4676 59.0271C93.9771 59.2341 100.254 70.7474 102.967 74.6153C103.439 75.2887 104.911 77.7545 106.239 80.095L108.654 84.3502L107.753 86.0046C107.258 86.9143 106.735 87.7083 106.591 87.7692C106.447 87.8299 105.344 85.4765 104.14 82.5393C102.937 79.6022 101.087 75.7313 100.031 73.9379C97.7011 69.9831 91.2774 60.8657 90.6536 60.6283C90.4065 60.5343 91.2556 62.7494 92.5404 65.5502C93.8253 68.3511 98.145 76.7233 97.8167 76.5894C97.4885 76.4555 92.444 68.3257 90.93 66.0885C89.4162 63.8509 88.0515 62.0733 87.8975 62.1383C87.7437 62.2028 88.779 64.7904 90.1983 67.8881C91.6175 70.9862 92.6485 73.4723 92.489 73.413C92.3298 73.3539 91.3026 72.0298 90.2064 70.4705C89.1105 68.9116 87.7429 67.0901 87.1673 66.4238C86.1663 65.2635 86.1257 65.2493 86.219 66.0911C86.427 67.9639 93.5007 83.5825 96.8564 89.5785C99.6142 94.5066 100.317 96.1296 100.072 97.0093C99.7587 98.1362 98.4723 99.5135 97.9384 99.2946C97.7823 99.2302 96.7626 96.4935 95.6727 93.213C94.5829 89.9325 92.6924 85.3412 91.4717 83.0099C88.8936 78.0871 83.7941 69.4242 83.3734 69.2531C83.0104 69.1055 84.1398 72.8934 86.1061 78.4186C87.6861 82.8595 91.8886 91.4128 95.336 97.2049C97.4905 100.825 97.4974 100.663 95.0901 103.124C93.8145 104.428 93.5063 104.336 93.078 102.523C91.7848 97.0506 87.9768 85.4964 86.3629 82.1485C84.1502 77.5589 80.1524 70.2628 79.7631 70.1045C79.2205 69.8839 82.5298 78.8418 90.6116 99.4717L92.9049 105.326L91.541 106.793C90.7909 107.6 90.0177 108.208 89.8227 108.143C89.628 108.079 89.0837 105.865 88.6129 103.224C87.1626 95.0868 85.6241 89.9071 82.9741 84.238C80.554 79.0612 77.0468 72.8538 76.8356 73.3733C76.7814 73.5066 77.0933 74.7291 77.5287 76.0894C78.6978 79.7431 80.8035 88.7552 80.5163 88.8764C80.3797 88.934 79.0177 86.0981 77.4896 82.5745C75.9615 79.0508 74.5397 76.0161 74.3304 75.8304C74.1211 75.6446 74.4926 77.2568 75.1563 79.4132C76.8857 85.0304 78.7934 92.5162 78.6103 92.9664C78.5244 93.1778 77.83 91.933 77.0678 90.2004C74.8569 85.1764 70.0431 76.9163 69.4677 77.1587C69.3467 77.2097 69.8697 78.9526 70.6299 81.0313C72.7355 86.7922 77.2442 101.031 78.4032 105.579C78.9707 107.808 79.8313 111.124 80.3157 112.949C80.8005 114.774 81.0942 116.52 80.9688 116.828C80.8435 117.136 80.0612 117.976 79.2302 118.695L77.7195 120.001L77.5565 116.72C77.17 108.934 73.8061 97.5539 68.8677 87.3256C66.267 81.939 65.577 81.2735 66.7329 85.2664C68.6882 92.0201 70.083 97.5384 70.5081 100.203L70.9431 102.931L68.8295 98.0307C67.6669 95.3352 66.4148 92.5861 66.0472 91.9214C65.6796 91.257 65.2093 90.3793 65.0017 89.9716C64.7947 89.5636 64.1475 88.4605 63.5634 87.5197C62.2252 85.3633 61.8433 86.055 62.6516 89.1724C62.9765 90.4256 63.4434 92.4101 63.6898 93.5827C64.2597 96.2961 66.785 104.364 69.5616 112.342C70.7511 115.76 72.0938 119.752 72.5455 121.214L73.3666 123.872L71.7513 125.269L70.1356 126.665L69.8463 122.748C69.4382 117.223 66.99 108.422 63.299 99.2123C61.5592 94.8711 60.0145 91.3699 59.8665 91.4327C59.5513 91.5656 61.1902 99.5869 62.459 104.12C63.9674 109.511 63.6234 108.974 60.2548 100.687C58.4573 96.2655 56.8033 92.725 56.5788 92.8197C56.3543 92.9144 56.4273 93.6682 56.7412 94.4944C57.055 95.321 58.3354 100.507 59.5857 106.019C60.8366 111.531 62.856 118.991 64.0735 122.598C66.2651 129.091 66.2763 129.163 65.2416 129.878C64.6663 130.275 64.0726 130.431 63.9218 130.225C63.7707 130.018 63.3707 127.655 63.0331 124.972C62.3539 119.58 61.4962 116.405 58.687 108.883C57.0182 104.415 53.2762 97.5108 52.6637 97.7692C52.5396 97.8212 53.028 99.8474 53.7491 102.271C54.47 104.695 55.4219 108.162 55.8648 109.976C56.3072 111.79 57.4575 115.389 58.4204 117.973C60.6704 124.011 62.7441 130.85 62.503 131.436C62.3995 131.687 61.7001 132.237 60.9481 132.657L59.5817 133.421L58.3934 127.998C56.4126 118.96 53.5273 110.284 50.7847 105.117C48.8964 101.561 48.0268 101.036 49.3 104.22C49.8176 105.515 50.6382 108.301 51.1229 110.412C52.3549 115.776 54.361 122.057 56.3156 126.671C57.2294 128.828 58.0564 131.388 58.1528 132.361C58.3232 134.081 58.2967 134.149 57.1409 134.947C56.043 135.706 55.9434 135.7 55.8153 134.869C55.0488 129.889 52.7 119.693 51.3823 115.62C49.1679 108.778 47.6636 104.896 47.5831 105.816C47.4183 107.694 50.357 120.72 52.6009 128.059L55.0713 136.137L53.9564 136.829C53.3433 137.21 52.6537 137.451 52.4239 137.366C52.1943 137.281 51.4952 135.55 50.8696 133.52C50.2009 131.349 48.7276 128.219 47.2916 125.919C44.7138 121.79 43.388 118.996 41.4953 113.703C40.8585 111.922 40.0826 110.07 39.7708 109.587C39.2159 108.729 39.2082 108.749 39.4034 110.582C39.5132 111.612 39.838 113.228 40.1256 114.174C40.8199 116.459 40.0944 116.139 37.0881 112.831C35.8074 111.422 34.6342 110.322 34.4811 110.387C34.3279 110.451 34.5446 111.351 34.9625 112.386C35.731 114.29 36.9976 116.3 40.7825 121.621C42.5313 124.079 43.2539 125.844 45.2556 132.54L47.6423 140.527L46.3068 141.213L44.9709 141.898L44.1365 138.365C42.4636 131.283 37.4763 119.016 36.4471 119.451C36.2612 119.529 36.7844 121.471 37.61 123.766C38.4354 126.061 39.8458 130.231 40.7445 133.031C41.6432 135.831 42.7319 138.959 43.1635 139.983C43.6871 141.224 43.7761 142.052 43.4308 142.468C42.9631 143.031 38.4689 144.906 27.9398 148.932C23.5486 150.611 22.2095 151.672 22.7781 153.021C23.1336 153.863 23.2559 153.859 24.3887 152.969ZM46.3016 143.909C46.3513 143.787 47.3896 143.156 48.6086 142.508L50.8249 141.331L52.9085 142.486C56.3594 144.398 56.1795 144.67 51.5395 144.558C47.2127 144.453 46.1347 144.319 46.3016 143.909ZM48.8662 138.742C48.9506 138.534 48.6071 136.825 48.1025 134.942C46.3134 128.263 46.8537 127.938 49.6119 134.034C51.4299 138.052 51.4515 138.171 50.4703 138.79C49.4391 139.44 48.5927 139.415 48.8662 138.742ZM68.9348 129.598C69.1369 129.361 69.6668 129.24 70.1121 129.328C70.8125 129.466 70.8148 129.545 70.1268 129.913C69.1862 130.417 68.4097 130.212 68.9348 129.598ZM66.1179 118.498C65.6628 116.149 65.4357 114.358 65.6137 114.519C65.9584 114.83 67.9097 120.899 68.7445 124.256C69.2722 126.378 68.9745 127.801 67.9074 128.251C67.4253 128.454 67.2262 127.806 67.1058 125.645C67.0179 124.063 66.5733 120.847 66.1179 118.498ZM73.6729 125.906L76.0051 123.903L80.871 125.624C85.6647 127.32 86.7441 127.856 85.0745 127.714C83.935 127.617 80.1624 127.865 76.3079 128.292C74.5715 128.484 72.7437 128.476 72.2458 128.275C71.3466 127.912 71.356 127.896 73.6729 125.906ZM73.6288 118.519C73.3955 116.064 72.9397 112.634 72.6169 110.896C72.2937 109.158 72.125 107.696 72.2421 107.647C72.4139 107.574 73.6078 110.976 74.6832 114.604C74.7908 114.967 75.3743 116.514 75.9794 118.042L77.0805 120.821L75.7945 121.994C75.0873 122.639 74.4063 123.125 74.2813 123.075C74.1563 123.024 73.8626 120.974 73.6288 118.519ZM77.7421 122.622C78.1092 122.584 79.6142 122.926 81.0866 123.384L83.7639 124.214L80.6934 123.78C77.7941 123.371 76.2723 122.773 77.7421 122.622ZM89.4412 125.082C95.3857 126.102 95.8006 126.212 95.4065 126.672C95.0161 127.128 90.6858 126.278 87.7803 125.174C86.2473 124.592 86.5003 124.578 89.4412 125.082ZM81.2835 119.449C83.2317 117.751 83.5989 117.603 85.0364 117.937C85.9124 118.141 88.1668 118.633 90.046 119.031C91.9251 119.429 94.794 120.074 96.4214 120.464C99.1539 121.119 107.014 122.278 108.202 122.202C108.485 122.183 107.858 122.482 106.81 122.865C104.316 123.776 102.899 123.779 97.2189 122.889C88.1706 121.469 85.6648 121.21 82.7097 121.389C81.0746 121.488 79.599 121.516 79.4305 121.451C79.2618 121.386 80.0956 120.485 81.2835 119.449ZM86.5436 114.674C88.3801 112.817 88.4346 112.812 92.5279 114.068C93.8889 114.485 99.7448 115.799 100.785 116.064C102.488 116.499 98.2119 115.84 93.0229 116.273C87.6141 116.724 85.0838 116.798 84.9207 116.509C84.8821 116.441 85.6126 115.615 86.5436 114.674ZM81.8129 114.752C81.9503 114.414 81.8923 111.742 81.6842 108.816C81.4758 105.888 81.4266 103.442 81.575 103.38C81.723 103.317 81.8753 103.366 81.9135 103.487C82.2102 104.439 83.8926 110.816 84.1934 112.129C84.5494 113.683 84.5082 113.827 83.4546 114.728C82.2609 115.748 81.4027 115.761 81.8129 114.752ZM84.7179 106.148C84.3593 102.778 84.1435 99.9878 84.2381 99.9479C84.3719 99.8914 87.8697 107.805 88.4153 109.397C88.5522 109.798 85.9961 112.53 85.6255 112.38C85.485 112.323 85.0763 109.518 84.7179 106.148ZM103.696 118.608C103.73 118.524 107.759 119.532 108.349 119.65C108.939 119.767 112.449 119.891 112.372 120.08C112.296 120.268 108.695 120.368 108.147 120.145C107.6 119.923 103.662 118.692 103.696 118.608ZM100.504 91.9028C100.127 90.173 97.5466 84.9478 97.69 84.8873C97.991 84.7606 102.513 91.6821 102.855 92.7628C103.089 93.5017 102.01 95.3863 101.479 95.1675C101.32 95.1017 100.881 93.6323 100.504 91.9028ZM102.456 86.9505C101.747 84.73 99.2534 79.1162 99.3587 79.0718C99.6607 78.945 105.564 89.4202 105.41 89.8003C105.17 90.3906 104.287 91.2082 104.011 91.096C103.866 91.0368 103.166 89.1714 102.456 86.9505ZM107.715 89.8349C107.801 89.624 108.36 89.4034 108.958 89.3452C110.039 89.2397 110.039 89.242 108.939 89.7848C107.711 90.3913 107.485 90.4006 107.715 89.8349ZM117.81 73.6296C118.501 72.5235 119.714 71.8009 123.796 70.0643C126.612 68.8661 128.956 67.9805 129.004 68.0962C129.19 68.5374 117.852 75.3858 117.303 75.163C117.106 75.0827 117.334 74.3925 117.81 73.6296ZM123.821 66.7635C125.587 65.8722 132.237 61.5242 132.173 61.6814C132.043 62.003 120.224 70.3202 120.015 70.2352C118.985 69.8167 123.736 66.8067 123.821 66.7635ZM132.996 31.0773C133.218 30.8482 132.882 33.64 132.66 34.1873C132.437 34.7347 131.578 36.4075 131.579 36.0892C131.135 35.6549 132.775 31.3057 132.996 31.0773Z" fill="#12372A"/>
</svg>
