<svg width="156" height="151" viewBox="0 0 156 151" fill="none" xmlns="http://www.w3.org/2000/svg">
    <path fill-rule="evenodd" clip-rule="evenodd" d="M17.7171 42.9641C20.518 45.8364 39.1024 59.4707 47.9067 65.1125C48.6583 65.5941 62.7994 73.6887 60.2711 72.9606C59.3328 72.6899 41.8595 63.9322 34.8937 60.0459C30.6081 57.6547 23.1781 54.4166 17.9843 52.6762C17.0977 52.3794 15.2751 51.7005 13.9341 51.1679C10.3376 49.7403 10.0656 50.2166 13.3265 52.231C16.3089 54.0736 25.9545 59.2857 30.3351 61.4221C35.2344 63.8113 40.0295 66.5862 45.0686 68.669C50.0222 70.7192 53.079 72.5152 57.9967 74.6518C61.2728 76.0752 62.7853 77.5807 57.7173 75.698C56.3223 75.1803 54.8728 75.2126 50.8345 73.757C41.2342 70.2957 35.4626 68.1935 31.827 66.8335C27.2889 65.1361 5.62645 58.0616 5.1669 58.1267C4.49783 58.2213 7.93187 60.368 11.4069 62.0271C15.0789 63.7799 21.3137 66.2752 39.7763 73.3807C51.4436 77.8711 59.4068 79.2536 58.7174 80.0833C57.2096 81.8962 29.8293 74.7245 28.0839 74.5243C14.9852 73.0223 10.8395 72.7904 5.01307 73.2349C1.31164 73.517 0.114943 73.9446 1.53594 74.4774C2.88451 74.983 8.80438 75.982 17.5302 77.1759C23.5255 77.9958 29.5398 79.2153 35.5753 79.6746C40.0508 80.0159 53.0785 81.8704 53.1222 82.1708C53.1622 82.4453 37.3998 82.5936 36.3555 82.4509C33.3809 82.0438 6.9591 85.9663 3.71547 87.2967C2.31422 87.871 4.32784 87.8964 11.2178 87.3906C23.2973 86.5038 35.4305 86.7581 47.4627 85.5591C51.7599 85.131 61.2484 84.2269 61.2715 84.3858C61.3207 84.7245 53.0631 86.2134 50.4464 86.7713C48.5667 87.1722 46.8695 87.6233 43.0331 88.7419C32.5964 91.7862 22.05 94.4361 11.6221 97.5051C7.5943 98.6908 3.42212 99.8573 2.34986 100.098C1.27817 100.338 0.432131 100.722 0.469926 100.95C0.557782 101.479 13.9331 99.3612 25.5349 96.9818C34.6997 95.1018 43.8656 93.1561 52.7851 90.314C55.0948 89.5773 56.2033 89.4713 55.7872 90.027C55.7156 90.1226 54.3108 90.8222 52.665 91.581C51.0196 92.34 46.8878 94.2649 43.483 95.8583C38.4898 98.1952 33.4653 100.481 28.3892 102.634C19.7324 106.309 5.7353 113.119 5.1021 113.964C4.70599 114.493 7.04164 113.817 10.0009 112.545C24.0765 106.499 38.6436 101.782 52.5949 95.3999C57.6822 93.0726 63.7994 87.0943 63.3474 87.698C62.8277 88.392 55.9362 95.8956 53.3672 97.4848C41.1908 105.014 29.3977 113.128 16.883 120.134C14.4782 121.48 11.8151 123.546 12.6443 123.422C14.1299 123.2 33.4912 113.83 40.0889 110.14C45.8 106.946 49.7571 104.137 51.9594 102.206C53.3092 101.022 66.5601 88.8513 66.3956 89.3483C66.1797 90.0001 53.99 103.491 50.648 106.262C46.0905 110.04 41.5246 114.01 37.12 117.961C25.8326 128.084 23.5472 130.29 23.7684 130.852C23.9583 131.333 24.8593 130.852 29.0885 128.016C37.8835 122.12 46.0318 115.02 55.9014 104.655C61.71 98.5555 68.3696 89.7181 68.9526 89.6354C69.5368 89.5526 63.466 97.9988 58.795 104.562C56.1366 108.298 55.0642 109.705 52.336 113.034C46.9577 119.597 34.6921 138.588 34.9015 140.027C35.105 141.426 47.1206 125.661 53.8469 115.169C58.6915 107.614 64.7219 98.079 64.5815 99.1475C64.532 99.5247 62.4922 104.142 61.7754 105.539C60.1536 108.699 57.3707 114.309 54.3283 120.552C51.9997 125.33 49.3589 129.974 47.192 134.829C44.2022 141.529 43.0402 144.298 42.9543 144.928C42.7994 146.067 45.5009 142.214 47.399 138.589C51.3887 130.973 55.9464 123.539 58.9048 115.442C59.5821 113.588 68.1041 95.2619 68.9826 94.5497C69.6984 93.9694 64.5231 106.943 64.001 108.768C63.4075 110.842 62.3737 112.739 61.7093 114.797C61.1734 116.458 60.2457 119.032 59.6475 120.517C57.6585 125.46 56.4507 130.736 54.9644 135.843C53.767 139.958 53.3606 142.334 53.9914 141.531C54.4416 140.958 56.8209 135.199 59.9773 127.042C61.0131 124.365 62.1134 121.573 62.4225 120.838C62.7317 120.103 63.9511 116.496 65.1327 112.824C67.2122 106.358 70.4876 94.6492 71.1257 93.7736C71.7032 92.9808 70.3908 100.682 69.854 102.424C69.5603 103.377 68.788 106.584 68.1377 109.55C67.4874 112.515 66.2446 117.548 65.3763 120.733C63.1836 128.774 60.2565 146.15 60.6377 148.861C60.7916 149.955 60.7966 149.954 61.2614 148.728C62.8726 144.48 67.1331 127.936 68.501 120.619C69.4333 115.627 70.8337 110.733 71.6631 105.721C71.963 103.908 73.548 94.3537 73.7294 94.1114C74.6183 92.9245 73.5223 102.459 73.0505 110.969C72.609 118.932 72.1891 128.974 72.2156 130.933C72.3081 137.743 72.7846 150.148 72.9723 150.623C73.2155 151.239 73.6054 148.364 73.9352 143.52C74.2698 138.609 74.847 133.726 74.9519 128.799C75.0906 122.246 76.1617 115.713 76.1072 109.164C76.0889 106.955 75.5844 99.2498 75.8625 100.982C75.9726 101.667 77.9577 115.598 79.1464 123.456C80.5093 132.462 81.4725 141.824 84.3207 150.525L84.2404 147.773C84.1376 144.256 83.6705 140.067 81.6299 124.368C80.7197 117.364 79.9501 110.26 79.9201 108.58C79.8887 106.819 78.1225 99.0374 77.9759 97.2913C77.8766 96.1121 79.685 102.582 80.5788 105.146C84.3225 115.883 87.1107 126.929 90.2309 137.856C92.1862 144.701 93.7965 149.852 94.0306 150.01C94.5038 150.329 91.7339 136.834 90.4428 132.53C89.8563 130.575 85.4151 112.349 84.0114 106.137C83.3324 103.133 82.4058 99.2677 81.9521 97.5469C80.459 91.8835 80.3682 91.467 80.6213 91.4311C83.6247 91.0115 93.3984 115.758 94.8719 119.272C97.3848 125.266 100.074 131.18 102.545 137.193C104.249 141.34 105.74 144.719 105.86 144.702C106.303 144.639 102.601 132.974 98.4975 121.497C93.1513 106.548 88.6633 97.1593 83.3272 89.7627C81.9328 87.8302 80.8796 86.1325 80.9863 85.99C81.8639 84.8181 96.6527 97.2468 105.631 106.703C109.321 110.588 122.341 125.821 127.21 131.95C128.566 133.657 130.442 135.77 131.38 136.646L133.085 138.239L133.832 137.242C134.546 136.289 134.504 136.144 132.881 133.969C128.996 128.764 116.175 114.183 111.445 109.591C110.642 108.812 108.976 107.101 107.741 105.788C102.923 100.665 97.1623 95.6287 89.893 90.1852C85.8248 87.1389 82.5801 84.5394 82.6823 84.409C83.1086 83.8645 91.9082 85.4702 106.397 88.737C109.718 89.4857 113.702 90.3734 115.252 90.7096C122.709 92.3281 129.382 95.449 138.208 101.447L143.553 105.078L141.761 103.096C136.367 97.1312 123.526 89.7364 114.869 87.6104C111.267 86.7264 107.773 85.4536 104.142 84.6818C101.095 84.034 83.5431 80.4184 84.1655 80.1749C86.8841 79.1109 106.633 83.2206 109.544 83.3646C113.543 83.5621 117.492 84.4283 121.466 84.8815C131.211 85.9934 135.344 87.4763 143.187 92.6749C145.531 94.2289 147.534 95.3873 147.637 95.2493C147.907 94.8882 140.418 88.6632 137.726 87.0113C132.466 83.7841 123.416 81.0541 116.674 80.6606C115.184 80.5736 112.972 80.3471 111.758 80.1576C110.545 79.9676 107.852 79.6604 105.774 79.4741C103.696 79.2879 97.2242 78.814 97.2966 78.5901C97.5512 77.8025 104.41 77.5596 109.391 77.3625C112.155 77.253 115.986 77.0815 117.902 76.9809C127.882 76.458 138.105 77.5546 149.458 80.366C150.861 80.7135 151.898 80.9058 151.763 80.793C151.234 80.3529 145.648 77.8142 143.138 76.8741C134.605 73.6772 120.571 72.8999 106.836 74.8639C99.8615 75.8613 82.8024 76.5247 93.9354 74.4455C96.3938 73.2597 108.347 71.7283 116.062 71.3371C126.942 70.785 134.173 69.5176 139.952 67.1495C142.895 65.9433 145.25 65.2528 146.191 65.3201C147.022 65.3791 149.532 65.5864 151.768 65.7799C154.003 65.9737 155.87 66.082 155.916 66.0212C156.017 65.8854 148.554 64.3083 147.773 63.7231C147.766 63.7183 152.14 60.9674 151.554 60.5281C151.409 60.4196 149.735 60.8404 147.834 61.4639C144.765 62.4703 143.929 62.5379 140.359 62.0676C128.246 60.4726 126.386 61.7859 112.341 62.7298C110.626 62.845 102.042 64.4463 102.022 64.3006C101.89 63.3971 123.213 57.3697 131.737 56.2349C135.652 55.7138 141.079 54.7183 143.797 54.0229C148.629 52.7864 150.134 52.0125 147.167 52.2897C137.922 53.1528 122.624 54.8038 119.998 55.2219C117.177 55.6706 110.492 57.8155 103.025 60.6674C99.1879 62.1329 91.9059 68.3473 92.5212 67.4813C93.2821 66.4099 108.005 55.0255 111.091 53.351C121.663 47.6135 128.88 44.1418 134.18 42.2451C135.428 41.7987 137.686 40.8907 139.198 40.2274C145.532 37.4495 130.772 41.48 130.005 41.6979C119.989 44.543 118.661 45.006 114.43 47.1288C109.157 49.7737 106.204 51.695 101.424 55.5925C99.0536 57.5247 86.5003 70.2368 86.1987 70.2796C84.8566 70.4699 97.4797 56.2964 101.751 52.1102C102.869 51.0143 105.661 48.2458 107.954 45.9583C110.248 43.6706 114.802 39.3976 118.075 36.4628C124.397 30.7955 131.224 23.1914 130.847 22.2382C130.622 21.6676 130.325 21.8811 126.272 25.5265C122.663 28.7723 118.755 31.6227 114.933 34.6121C108.12 39.9419 105.027 42.8514 99.6272 49.0133C95.9567 53.2009 83.3503 68.0131 81.4033 69.9529C79.5912 71.7583 88.4694 60.047 92.3886 53.6366C97.4084 45.4269 103.05 38.3144 109.258 32.3708C114.579 27.2756 120.526 20.6071 121.64 18.4859C122.866 16.1519 114.485 23.8097 112.96 25.0993C98.7512 37.1117 91.5854 47.8279 82.121 63.2734C80.1711 66.4555 80.2779 65.3599 81.3808 60.8967C83.5014 52.3148 87.5657 43.4488 94.7948 32.5888C97.1874 28.9945 100.952 23.3389 103.16 20.0209C105.369 16.703 107.518 13.1446 107.937 12.1136C108.69 10.2594 108.651 10.2932 104.328 15.1861C98.0436 22.2991 89.3766 33.1833 87.5763 36.2228C84.7936 40.9218 81.6342 51.1716 80.1227 56.4393C81.5595 49.6157 84.8008 37.3755 86.9542 30.735L90.2863 23.2517L94.5027 16.0489C100.388 7.52057 103.492 2.77108 103.148 2.81985C102.861 2.86078 99.4474 6.37785 95.4802 10.72C91.1287 15.4824 88.087 19.7658 85.6449 24.571C84.4675 26.8878 80.8734 40.9419 80.758 41.096C80.2344 41.7952 82.5651 28.6159 82.373 23.9147C81.9902 14.5475 80.6462 0.293318 80.2017 0.886962C78.8604 2.67812 79.6125 8.93685 79.5734 11.0875C79.4728 16.6412 78.8721 25.1324 78.176 30.8508C77.9067 33.0612 77.4773 38.1778 77.2212 42.2216C76.9652 46.2653 76.5952 50.6711 76.3985 52.0128C76.2907 52.7483 77.2681 66.8862 76.4134 67.2207C75.8805 67.4288 74.6374 53.7278 74.1956 46.2755C73.5079 34.6852 71.9672 21.5889 70.2598 12.8262C69.0587 6.66381 67.8301 2.07535 67.3974 2.13698C67.2437 2.15848 67.4133 4.85974 67.7744 8.13924C69.1119 20.277 69.5984 32.462 69.5855 44.6582C69.5803 48.946 75.3732 65.554 72.8368 68.9412C72.5082 69.3801 71.6602 65.7621 71.3805 64.0189C70.7083 59.8279 69.2942 55.5519 68.2974 51.4154C67.1639 46.7142 63.7414 30.8635 62.9406 26.6084C61.9792 21.4946 60.9035 16.4019 59.8693 11.3023C59.6805 10.371 57.5312 -0.258612 57.3033 2.80716C56.7491 10.2449 58.41 26.2323 60.8778 37.2156C62.3962 43.9736 66.8711 54.4301 67.8364 61.8812C68.4066 66.2826 63.9513 56.476 63.6135 55.6823C62.6089 53.322 61.2935 50.0811 60.6903 48.4805C58.3925 42.3827 56.7061 38.409 54.5828 34.0892C53.3744 31.631 50.5207 25.801 48.2413 21.1332C45.9619 16.4659 43.9033 12.5827 43.6668 12.5035C42.9398 12.2609 45.5134 22.1222 47.9299 28.8396C51.486 38.7227 56.2967 48.1172 59.8708 57.9282C60.3777 59.3179 70.4011 74.2024 64.9498 68.7601C63.3546 67.1683 54.4975 56.6811 51.5604 52.9063C47.9179 48.2231 44.4259 43.5042 40.9503 38.6657C34.2109 29.2852 31.6633 25.8975 31.378 25.938C30.1995 26.1051 35.9518 37.1052 42.2459 46.7218C43.6414 48.854 49.9477 56.2465 49.7193 56.4009C49.1986 56.7522 42.7213 50.1501 40.8833 47.7639C36.6683 42.2895 24.7009 30.461 24.5951 31.6644C24.5242 32.4745 30.6055 40.8742 35.4049 46.5948C36.8883 48.3631 64.2124 71.7087 63.7619 72.3104C63.6086 72.515 49.4899 62.4537 44.7044 58.8913C40.7107 55.9191 36.6899 53.1238 32.5116 50.439C26.6132 46.6498 18.0124 41.7661 16.9656 41.6119C16.524 41.5469 16.7742 41.9974 17.7171 42.9641ZM115.602 65.1714C127.891 63.5946 138.312 63.2811 137.387 64.5157C136.296 65.9727 99.5762 71.2181 93.7681 70.4885C89.6051 69.9655 103.435 67.1168 115.602 65.1714Z" fill="#436850"/>
</svg>
