<svg width="211" height="180" viewBox="0 0 211 180" fill="none" xmlns="http://www.w3.org/2000/svg">
    <path fill-rule="evenodd" clip-rule="evenodd" d="M52.7391 2.04224C53.252 2.93923 54.2133 5.88672 54.8757 8.59147C56.2116 14.0507 57.7507 17.0511 62.6759 23.7968C71.1377 35.3859 77.9486 49.4469 78.7215 56.9212C79.0018 59.6326 78.6535 67.881 78.0329 73.2355C77.2333 80.133 77.2794 82.1113 78.4954 93.0215C79.0439 97.9402 79.3722 103.609 79.2245 105.618C78.4699 115.916 78.2045 118.439 77.5082 121.927C77.0919 124.014 76.0518 127.386 75.1979 129.421C73.8997 132.514 73.2024 133.525 70.9513 135.582C67.4088 138.818 63.1655 140.798 57.9078 141.666C52.0801 142.628 51.0308 142.646 47.2877 141.843C45.5045 141.46 44.0027 139.72 43.7997 139.814C43.5965 139.908 43.4913 143.062 43.7173 144.984C44.2953 149.906 44.2797 153.03 43.6336 161.54C42.8367 172.041 41.5556 177.981 39.7985 179.32C38.648 180.198 37.7435 178.496 38.1706 176.255C38.375 175.182 39.0936 172.377 39.7678 170.022C41.2105 164.982 42.0062 159.935 42.0349 155.636C42.0459 153.935 42.0881 151.228 42.1286 149.621C42.2688 144.039 42.0672 140.288 41.614 139.927C41.3632 139.726 39.5588 143.385 37.4603 145.425C32.9106 149.847 30.5926 151.025 27.3422 150.565C24.1825 150.117 21.9321 148.623 17.6081 144.102C10.4031 136.568 4.54272 125.156 3.02079 115.695C0.0907593 97.4758 0.0851902 83.5891 2.99808 61.2774C5.25212 44.0156 9.28472 31.9215 15.8957 22.5937C22.4398 13.3618 40.4021 1.79919 50.0197 0.628172C51.742 0.418516 51.8394 0.468741 52.7391 2.04224ZM35.2059 17.437C32.0615 17.675 31.6364 20.6124 34.187 24.4823C36.1665 27.4864 40.3912 30.856 42.2837 30.9409C43.7058 31.0043 44.2597 29.2827 43.869 26.0136C43.5162 23.0644 42.5951 20.9358 41.0846 19.5802C39.699 18.337 36.8823 17.3102 35.2059 17.437ZM59.5275 30.7923C59.0908 31.0457 57.8489 32.4595 56.7688 33.9336C55.6882 35.4076 53.2585 38.0383 51.3695 39.7794C48.5414 42.387 47.8831 43.2539 47.6419 44.6919C47.2678 46.918 47.9069 48.2859 49.6138 48.9127C52.3992 49.9355 55.5338 46.5442 59.3954 38.3294C61.3783 34.112 61.7037 33.1004 61.4413 31.9711C61.0809 30.4193 60.6389 30.1471 59.5275 30.7923ZM20.0585 22.8208C19.2099 25.1315 22.0526 32.4836 25.2871 36.3436C27.4429 38.916 32.8796 43.3037 34.7721 43.9987C36.8994 44.7798 39.8072 44.5204 40.6155 43.4771C41.6159 42.1864 40.5961 38.4402 38.501 35.71C36.4533 33.0417 33.9176 31.1681 28.5284 28.3417C26.1452 27.0924 24.1503 25.7112 23.6125 24.939C21.9526 22.5579 20.4779 21.6786 20.0585 22.8208ZM67.4906 49.6698C65.5904 51.3419 62.5422 53.6833 60.7175 54.8722C55.3217 58.3885 54.8007 60.1066 58.514 62.1386C62.3835 64.2564 63.831 63.3541 69.4226 55.3393C72.8741 50.3918 73.505 48.973 72.8676 47.5961C72.1489 46.0435 71.1935 46.4115 67.4906 49.6698ZM25.9292 47.7131C23.8869 48.1601 26.2446 51.6981 31.2951 55.7666C34.4351 58.2957 36.3361 58.7922 36.909 57.232C37.6239 55.2855 35.6756 52.3304 32.3392 50.3012C28.9236 48.2235 27.0514 47.4674 25.9292 47.7131ZM9.05589 50.6952C8.19069 51.0496 8.68884 53.5649 10.0726 55.8265C13.7478 61.8327 21.3183 69.7679 27.0153 73.5855C31.7965 76.7885 37.1001 77.1515 38.1302 74.3462C38.9083 72.2272 38.3981 69.5944 36.7621 67.2842C34.2286 63.7079 33.1024 62.9089 19.4893 55.0303C16.6925 53.4121 13.901 51.8161 13.2857 51.484C11.9317 50.7536 9.85742 50.3666 9.05589 50.6952ZM64.5857 75.2227C60.3984 76.1327 56.6632 78.4571 50.9985 83.6779C46.5934 87.7376 46.4775 89.7524 50.5586 91.3084C52.726 92.1354 52.7518 92.1277 55.9066 89.819C60.0577 86.7811 64.2585 82.7027 66.589 79.4486C69.5554 75.3066 69.0551 74.2512 64.5857 75.2227ZM65.1192 95.5119C55.0688 101.006 49.8306 105.263 48.4318 109.072C47.3803 111.935 48.0532 112.908 52.038 114.288C56.0076 115.663 58.1422 115.018 61.861 111.321C66.4801 106.728 67.9358 104.48 69.6119 99.346C71.0922 94.8111 71.046 93.4931 69.4053 93.5168C69.0452 93.5223 67.1162 94.42 65.1192 95.5119ZM22.7794 79.2618C18.9485 79.5093 18.3246 80.8433 20.5567 84.0167C22.6892 87.0496 26.6327 90.3074 31.6549 93.1857C39.0973 97.4507 40.3233 96.8771 37.1889 90.5955C34.8595 85.9278 33.3312 84.0393 29.9515 81.6522C26.8808 79.4835 25.6585 79.076 22.7794 79.2618ZM5.27497 85.2708C2.91365 86.3634 4.23942 91.2764 7.91754 95.0672C9.12866 96.3155 11.5545 99.3001 13.3082 101.7C20.6182 111.704 28.7341 117.452 33.508 116.006C34.8375 115.603 35.197 115.175 35.9351 113.112C36.6877 111.009 36.6691 110.389 35.792 108.392C35.2367 107.127 34.3532 105.619 33.8285 105.04C32.0079 103.031 27.4419 99.6933 21.36 95.9252C17.9677 93.8235 13.7293 90.7409 11.8396 89.0017C8.2021 85.6536 6.51699 84.696 5.27497 85.2708ZM62.2443 123.579C59.5503 123.907 54.7433 125.744 51.704 127.607C46.951 130.521 47.3724 133.648 52.7101 135.076C55.9442 135.941 58.4091 135.519 60.9688 133.663C63.0344 132.166 66.066 128.21 66.9104 125.91C67.3491 124.716 67.2375 124.535 65.7173 123.976C64.7951 123.638 63.2325 123.459 62.2443 123.579ZM7.76192 116.303C5.23389 117.771 21.04 132.211 28.2474 135.018C36.6273 138.282 37.5163 131.602 29.352 126.721C14.6906 117.955 9.35248 115.379 7.76192 116.303Z" fill="#12372A"/>
    <path d="M111.909 151.976C113.002 157.482 115.896 162.025 119.736 165.947C120.572 166.804 122.289 167.299 123.524 167.18C127.737 166.781 131.282 164.58 134.766 162.345C136.501 161.231 138.255 160.149 139.959 158.994C141.933 157.653 141.921 156.965 140.196 155.38C139.231 154.496 136.615 152.743 137.405 151.497C138.114 151.787 138.881 151.987 139.523 152.384C144.071 155.211 146.725 154.995 150.817 151.493C154.658 148.21 158.835 145.264 162.321 141.647C167.067 136.728 173.124 133.666 178.324 129.41C186.736 122.522 193.291 114.22 198.641 104.859C198.748 104.674 198.802 104.459 198.914 104.278C202.923 97.6804 200.979 97.14 195.557 94.4191C194.611 93.9435 193.576 93.6764 193.848 92.595C195.719 92.7267 197.59 92.8499 199.46 92.9902C204.501 93.3796 205.165 93.1517 207.021 88.4243C208.366 84.9998 209.26 81.3848 210.223 77.8219C211.244 74.0442 209.82 70.871 207.607 67.8611C206.632 66.5307 206.191 64.8087 205.211 63.4865C204.377 62.3591 203.266 61.0621 202.02 60.6653C195.512 58.6104 188.998 58.6065 182.566 61.2091C180.525 62.0353 178.396 62.6536 176.28 63.2642C173.226 64.1478 171.631 66.074 171.517 69.2847C171.47 70.6118 171.172 71.9298 170.988 73.2516C169.912 73.6257 169.289 71.6107 168.797 70.7368C168.347 69.9326 168.063 69.02 167.527 68.2912C166.121 66.3811 164.779 66.2394 163.066 67.8311C160.82 69.9175 158.634 72.0166 155.552 72.9411C154.885 73.1388 153.945 74.6648 154.147 75.1469C155.617 78.5936 154.203 81.9102 153.954 85.2616C153.702 88.6956 154.762 101.783 151.784 103.7C151.318 102.277 150.457 100.856 150.454 99.4309C150.446 95.0958 150.73 90.7554 150.976 86.4209C151.185 82.7233 150.121 79.3567 148.325 76.226C148 75.6623 146.661 75.1131 146.108 75.3403C143.483 76.4214 140.959 77.7629 138.415 79.0343C138.104 79.1883 137.735 79.4199 137.603 79.711C136.081 82.9814 132.411 84.0318 130.369 86.7591C130.075 87.1505 129.651 87.451 129.272 87.7762C126.405 90.2052 126.312 90.2501 128.146 93.7053C131.202 99.467 133.595 107.874 131.456 114.35C131.444 114.388 131.341 114.393 130.91 114.534C130.541 113.135 130.149 111.756 129.818 110.359C128.994 106.893 128.234 103.415 127.37 99.9638C127.133 99.0072 126.728 98.0559 126.226 97.2051C123.271 92.229 122.473 93.2113 119.328 95.6893C116.802 97.683 113.668 98.9171 110.783 100.448C108.964 101.414 107.088 102.282 105.268 103.252C103.877 103.991 103.652 104.868 104.56 106.361C107.238 110.747 108.392 115.631 108.466 120.859C106.943 118.099 105.457 115.321 103.894 112.584C102.221 109.651 99.8539 108.527 97.1564 110.449C90.2207 115.389 83.2234 120.411 79.4062 128.481C78.0295 131.393 77.9345 134.326 79.5898 137.086C81.6289 140.492 83.8654 143.773 86.0569 147.086C86.8404 148.27 87.6541 149.452 88.5968 150.51C90.1874 152.3 89.3491 153.477 87.6993 154.416C83.1249 157.03 78.6027 159.754 73.9072 162.136C67.302 165.49 60.6056 168.679 53.858 171.74C49.9745 173.501 45.8901 174.823 41.9469 176.455C41.2177 176.755 40.7113 177.608 40.1027 178.205C40.8564 178.777 41.6148 179.83 42.366 179.828C44.6802 179.815 47.105 179.754 49.2894 179.084C60.9188 175.504 72.0154 170.715 82.1574 163.88C84.6941 162.17 87.3089 160.569 89.9189 158.976C91.5064 158.006 94.8386 159.443 95.9974 161.636C96.6941 162.955 97.283 164.344 97.7715 165.756C99.909 171.907 103.985 172.902 109.076 172.819C110.206 172.799 111.357 172.614 112.453 172.335C114.783 171.74 115.199 170.834 113.781 168.841C111.477 165.61 110.218 162.032 109.796 158.149C109.442 154.892 109.563 151.652 110.607 148.528C111.848 148.406 111.702 150.933 111.909 151.976Z" fill="#ADBC9F"/>
</svg>
