<svg width="24" height="24" viewBox="0 0 24 24" fill="none" xmlns="http://www.w3.org/2000/svg">
    <path fill-rule="evenodd" clip-rule="evenodd" d="M20.697 17.8717C19.2607 17.394 17.7165 17.037 16.0913 16.806C16.3125 15.5063 16.4303 14.1442 16.4678 12.75H22.4715C22.3373 14.6407 21.702 16.3905 20.697 17.8717ZM14.5755 22.1693C15.075 20.9625 15.4837 19.6583 15.798 18.2843C17.1465 18.4838 18.4395 18.7785 19.6642 19.1655C18.3112 20.6078 16.5548 21.669 14.5755 22.1693ZM12.7282 22.4632C12.4867 22.4805 12.246 22.5 12 22.5C11.754 22.5 11.514 22.4805 11.2718 22.4632C10.6335 21.1342 10.1168 19.6553 9.73425 18.0855C10.4798 18.0203 11.235 17.982 12 17.982C12.765 17.982 13.5203 18.0203 14.2665 18.0855C13.8833 19.6553 13.3665 21.1342 12.7282 22.4632ZM4.33575 19.1655C5.5605 18.7785 6.8535 18.4838 8.202 18.2843C8.51625 19.6583 8.925 20.9625 9.4245 22.1693C7.44525 21.669 5.6895 20.6078 4.33575 19.1655ZM3.30301 17.8717C2.29801 16.3905 1.66275 14.6407 1.5285 12.75H7.53225C7.56975 14.1442 7.6875 15.5063 7.90875 16.806C6.2835 17.037 4.73925 17.394 3.30301 17.8717ZM3.30301 6.12827C4.73925 6.60602 6.2835 6.96374 7.90875 7.19398C7.6875 8.49374 7.56975 9.85575 7.53225 11.25H1.5285C1.66275 9.35925 2.29801 7.60952 3.30301 6.12827ZM9.4245 1.83073C8.925 3.03748 8.51625 4.34173 8.202 5.71573C6.8535 5.51698 5.5605 5.22149 4.33575 4.83449C5.6895 3.39224 7.44525 2.33098 9.4245 1.83073ZM11.2718 1.53676C11.514 1.52026 11.754 1.5 12 1.5C12.246 1.5 12.4867 1.52026 12.7282 1.53676C13.3665 2.86576 13.8833 4.34549 14.2665 5.91449C13.5203 5.97974 12.765 6.01799 12 6.01799C11.235 6.01799 10.4798 5.97974 9.73425 5.91449C10.1168 4.34549 10.6335 2.86576 11.2718 1.53676ZM14.9655 12.75C14.925 14.0708 14.805 15.3698 14.5792 16.617C13.7347 16.5435 12.876 16.5 12 16.5C11.124 16.5 10.2652 16.5435 9.4215 16.617C9.195 15.3698 9.075 14.0708 9.03525 12.75H14.9655ZM9.03525 11.25C9.075 9.92925 9.195 8.63025 9.4215 7.383C10.2652 7.4565 11.124 7.5 12 7.5C12.876 7.5 13.7348 7.4565 14.5785 7.383C14.805 8.63025 14.925 9.92925 14.9655 11.25H9.03525ZM19.6642 4.83449C18.4395 5.22149 17.1465 5.51698 15.798 5.71573C15.4837 4.34173 15.075 3.03748 14.5755 1.83073C16.5548 2.33098 18.3112 3.39224 19.6642 4.83449ZM20.697 6.12827C21.702 7.60952 22.3373 9.35925 22.4715 11.25H16.4678C16.4303 9.85575 16.3125 8.49374 16.0913 7.19398C17.7165 6.96374 19.2607 6.60602 20.697 6.12827ZM12 0C5.373 0 0 5.37225 0 12C0 18.6278 5.373 24 12 24C18.627 24 24 18.6278 24 12C24 5.37225 18.627 0 12 0Z" fill="#FEFEFE"/>
</svg>
